<svg width="672px" height="221px" viewBox="0 0 672 221" version="1.1" xmlns="http://www.w3.org/2000/svg" xmlns:xlink="http://www.w3.org/1999/xlink"><g id="Color-Flat---Light---No-URL" stroke="none" stroke-width="1" fill="none" fill-rule="evenodd"><path d="M159.306866,45.8747358 C156.642836,47.2992453 153.794478,48.0455094 150.736567,48.0455094 C147.379851,48.0455094 144.288955,47.2040189 141.469701,45.5210377 C138.683433,43.8749811 136.450149,41.6206415 134.771791,38.7560755 C133.128358,35.9303774 132.307612,32.8695283 132.307612,29.5774151 C132.307612,27.556283 132.647164,25.6381509 133.254478,23.8035849 C122.522687,18.1891132 110.331791,15 97.3880597,15 L45,15 L45,34.4203585 C55.2370149,34.4261887 64.6591045,36.939 73.2643284,41.9587925 C81.8773134,46.9863585 88.6916418,53.8154528 93.7073134,62.4441321 C98.7210448,71.0766981 101.231791,80.5293774 101.231791,90.7963396 C101.231791,101.067189 98.7210448,110.409094 93.7073134,118.822057 C88.5810448,127.563453 81.770597,134.446962 73.2643284,139.470642 C64.5504478,144.603151 55.1302985,147.168434 45,147.172321 L45,221 L95.4652239,221 L175,119.95117 L175,92.7358491 C175,75.1345094 169.153881,58.9052075 159.306866,45.8747358" id="Fill-1" fill="#4A4A4A"></path><polygon id="Fill-9" fill="#60BFA1" points="112 221 144.835288 220.994288 167.245978 194.41648 167.364331 205.755558 154.381783 220.992383 175 220.988575 175 209.855144 174.998091 168.944971 144.459231 209.563812 134.338151 209.769458 174.998091 157.118437 174.996182 141"></polygon><path d="M83.049638,69.3694447 C79.08273,62.4808215 73.6916052,57.0297729 66.8801339,53.0182549 C60.0667275,49.0067369 52.6070054,47 44.5009675,47 C36.2207727,47 28.7610506,49.0067369 22.1218011,53.0182549 C15.3954732,57.0297729 10.0043485,62.5238509 5.95036201,69.500489 C1.983454,76.3891122 0,83.8899272 0,91.9990221 C0,100.024014 1.983454,107.479844 5.95036201,114.368467 C10.0043485,121.347061 15.3954732,126.841139 22.1218011,130.850701 C28.9332725,134.95219 36.3929946,137 44.5009675,137 C52.521862,137 59.9796491,134.95219 66.8801339,130.850701 C73.6064619,126.841139 78.9956515,121.347061 83.049638,114.368467 C87.0146109,107.653917 89,100.198088 89,91.9990221 C89,83.8038683 87.0146109,76.258068 83.049638,69.3694447" id="Fill-9" fill="#60BFA1"></path><path d="M149,2 L147,2 C144.238,2 142,4.18205 142,6.875 L142,36.125 C142,38.81795 144.238,41 147,41 L149,41 C151.762,41 154,38.81795 154,36.125 L154,6.875 C154,4.18205 151.762,2 149,2" id="Fill-15" fill="#60BFA1"></path><path d="M235.08,13.072 L224.616,13.072 C223.752,13.072 222.984,12.304 222.984,11.44 L222.984,3.28 C222.984,2.32 223.752,1.648 224.616,1.648 L260.04,1.648 C260.904,1.648 261.672,2.32 261.672,3.28 L261.672,11.44 C261.672,12.304 260.904,13.072 260.04,13.072 L249.768,13.072 C248.904,13.072 248.136,13.744 248.136,14.704 L248.136,68.368 C248.136,69.232 247.464,70 246.504,70 L238.344,70 C237.48,70 236.712,69.232 236.712,68.368 L236.712,14.704 C236.712,13.744 236.04,13.072 235.08,13.072 Z M309.288,4.816 L316.872,45.232 C316.968,46.096 317.256,46.096 317.448,45.232 L327.144,3.184 C327.336,2.32 328.2,1.552 329.16,1.552 L337.608,1.552 C338.472,1.552 339.048,2.32 338.856,3.184 L323.88,68.368 C323.688,69.232 322.824,70 321.96,70 L311.496,70 C310.536,70 309.672,69.232 309.576,68.368 L303.432,35.824 C303.24,34.96 303.048,34.96 302.856,35.824 L296.808,68.368 C296.616,69.232 295.752,70 294.792,70 L284.424,70 C283.464,70 282.6,69.232 282.408,68.368 L267.432,3.184 C267.24,2.32 267.816,1.552 268.68,1.552 L277.224,1.552 C278.088,1.552 278.952,2.32 279.144,3.184 L288.84,45.232 C289.032,46.096 289.32,46.096 289.512,45.232 L297.288,3.568 L297.48,2.608 C297.576,2.032 298.44,1.552 299.304,1.552 L306.984,1.552 C307.944,1.552 308.712,1.936 308.808,2.416 L309.288,4.816 Z M389.064,18.352 L389.064,50.416 C389.064,63.568 380.808,71.344 366.888,71.344 C352.968,71.344 344.616,63.568 344.616,50.416 L344.616,18.352 C344.616,9.328 351.528,0.208 366.888,0.208 C382.248,0.208 389.064,9.328 389.064,18.352 Z M377.64,50.416 L377.64,18.352 C377.64,12.304 370.152,11.632 366.888,11.632 C363.624,11.632 356.04,12.304 356.04,18.352 L356.04,50.416 C356.04,55.408 357.384,59.92 366.888,59.92 C376.296,59.92 377.64,55.408 377.64,50.416 Z M423.912,19.696 C423.912,9.712 433.512,0.976 444.552,0.976 C449.256,0.976 453.672,1.84 457.416,3.28 C458.28,3.664 458.952,4.72 458.952,5.584 L458.952,16.432 C458.952,17.392 458.472,17.488 457.8,16.816 C455.016,14.224 450.12,12.4 444.552,12.4 C440.04,12.4 435.336,16.144 435.336,19.696 C435.336,24.304 438.792,26.704 447.336,29.968 C455.304,33.04 466.344,37.648 466.344,50.128 C466.344,60.304 458.472,71.152 443.976,71.152 C436.872,71.152 430.632,69.712 425.064,66.928 C424.296,66.544 423.624,65.488 423.624,64.528 L423.624,53.68 C423.624,52.72 424.2,52.528 424.872,53.104 C430.152,57.616 436.2,59.728 443.976,59.728 C452.616,59.728 454.824,53.488 454.824,50.128 C454.824,46.096 452.136,44.08 443.208,40.624 C435.048,37.552 423.912,32.656 423.912,19.696 Z M484.2,13.072 L473.736,13.072 C472.872,13.072 472.104,12.304 472.104,11.44 L472.104,3.28 C472.104,2.32 472.872,1.648 473.736,1.648 L509.16,1.648 C510.024,1.648 510.792,2.32 510.792,3.28 L510.792,11.44 C510.792,12.304 510.024,13.072 509.16,13.072 L498.888,13.072 C498.024,13.072 497.256,13.744 497.256,14.704 L497.256,68.368 C497.256,69.232 496.584,70 495.624,70 L487.464,70 C486.6,70 485.832,69.232 485.832,68.368 L485.832,14.704 C485.832,13.744 485.16,13.072 484.2,13.072 Z M561,18.352 L561,50.416 C561,63.568 552.744,71.344 538.824,71.344 C524.904,71.344 516.552,63.568 516.552,50.416 L516.552,18.352 C516.552,9.328 523.464,0.208 538.824,0.208 C554.184,0.208 561,9.328 561,18.352 Z M549.576,50.416 L549.576,18.352 C549.576,12.304 542.088,11.632 538.824,11.632 C535.56,11.632 527.976,12.304 527.976,18.352 L527.976,50.416 C527.976,55.408 529.32,59.92 538.824,59.92 C548.232,59.92 549.576,55.408 549.576,50.416 Z M611.688,18.832 L611.688,35.536 C611.688,40.432 609.576,44.752 606.12,47.824 C605.448,48.4 605.16,49.456 605.544,50.32 L614.376,68.56 C614.76,69.328 614.376,70 613.416,70 L604.008,70 C603.144,70 602.088,69.328 601.704,68.56 L594.504,53.584 C594.12,52.816 593.064,52.144 592.2,52.144 L582.696,52.144 C581.832,52.144 581.064,52.912 581.064,53.776 L581.064,68.368 C581.064,69.232 580.296,70 579.432,70 L571.272,70 C570.408,70 569.64,69.232 569.64,68.368 L569.64,3.184 C569.64,2.32 570.408,1.552 571.272,1.552 L594.312,1.552 C605.064,1.552 611.688,8.176 611.688,18.832 Z M594.312,12.976 L582.696,12.976 C581.832,12.976 581.064,13.744 581.064,14.608 L581.064,39.088 C581.064,39.952 581.832,40.72 582.696,40.72 L594.312,40.72 C598.248,40.72 600.264,38.128 600.264,35.536 L600.264,18.832 C600.264,14.416 598.824,12.976 594.312,12.976 Z M635.88,3.088 L646.44,26.992 C646.824,27.856 647.4,27.856 647.784,26.992 L658.44,3.088 C658.728,2.224 659.784,1.552 660.744,1.552 L669.96,1.552 C670.824,1.552 671.304,2.224 670.92,3.088 L653.544,42.352 C653.16,43.216 652.872,44.56 652.872,45.424 L652.872,68.368 C652.872,69.232 652.104,70 651.24,70 L643.08,70 C642.12,70 641.448,69.232 641.448,68.368 L641.448,45.424 C641.448,44.56 641.064,43.216 640.776,42.352 L623.304,3.088 C623.016,2.224 623.4,1.552 624.264,1.552 L633.576,1.552 C634.44,1.552 635.496,2.224 635.88,3.088 Z" id="Two-Story" fill="#60BFA1"></path><path d="M238.164,97.384 L278.484,97.384 C297.3,97.384 308.892,108.976 308.892,127.624 L308.892,156.688 C308.892,170.128 299.988,181.048 287.556,184.576 C286.044,185.08 285.708,186.256 286.716,187.264 C292.428,192.64 298.644,195.832 305.532,196.84 C307.044,197.176 308.388,198.352 308.388,200.032 L308.388,214.312 C308.388,215.824 307.044,217.168 305.532,217 C287.388,215.656 274.62,203.728 265.044,193.816 C263.196,191.8 260.844,189.448 258.828,187.768 C257.652,186.592 256.308,185.92 255.972,185.92 C255.636,185.92 255.3,187.096 255.3,188.776 L255.3,214.144 C255.3,215.656 253.956,217 252.444,217 L238.164,217 C236.652,217 235.308,215.656 235.308,214.144 L235.308,100.24 C235.308,98.56 236.652,97.384 238.164,97.384 Z M262.02,165.928 L278.484,165.928 C285.372,165.928 288.9,161.224 288.9,156.688 L288.9,127.624 C288.9,119.896 286.38,117.376 278.484,117.376 L258.156,117.376 C256.644,117.376 255.3,118.552 255.3,120.232 L255.3,163.072 C255.3,164.584 255.804,165.928 256.308,165.928 L257.484,165.928 C257.484,165.76 257.82,165.76 258.324,165.76 C258.828,165.928 260.34,165.928 262.02,165.928 Z M401.796,126.616 L401.796,182.728 C401.796,205.744 387.348,219.352 362.988,219.352 C338.628,219.352 324.012,205.744 324.012,182.728 L324.012,126.616 C324.012,110.824 336.108,94.864 362.988,94.864 C389.868,94.864 401.796,110.824 401.796,126.616 Z M381.804,182.728 L381.804,126.616 C381.804,116.032 368.7,114.856 362.988,114.856 C357.276,114.856 344.004,116.032 344.004,126.616 L344.004,182.728 C344.004,191.464 346.356,199.36 362.988,199.36 C379.452,199.36 381.804,191.464 381.804,182.728 Z M485.46,150.808 C484.62,152.152 484.956,154 485.964,155.008 C492.516,161.224 496.044,170.8 496.044,182.896 C496.044,204.4 482.604,217.168 460.092,217.168 L419.772,217.168 C418.26,217.168 416.916,215.992 416.916,214.312 L416.916,100.072 C416.916,98.56 418.26,97.216 419.772,97.216 L460.092,97.216 C478.236,97.216 490.5,110.32 490.5,129.976 C490.5,137.2 488.988,144.592 485.46,150.808 Z M460.092,117.208 L439.764,117.208 C438.252,117.208 436.908,118.552 436.908,120.064 L436.908,144.256 C436.908,145.936 438.252,147.112 439.764,147.112 L453.372,147.112 C460.764,147.112 470.508,145.432 470.508,129.976 C470.508,117.208 462.948,117.208 460.092,117.208 Z M439.764,197.176 L460.092,197.176 C473.364,197.176 476.052,191.464 476.052,182.896 C476.052,167.104 468.492,167.104 463.956,167.104 L439.764,167.104 C438.252,167.104 436.908,168.448 436.908,169.96 L436.908,194.32 C436.908,196 438.252,197.176 439.764,197.176 Z M588.948,126.616 L588.948,182.728 C588.948,205.744 574.5,219.352 550.14,219.352 C525.78,219.352 511.164,205.744 511.164,182.728 L511.164,126.616 C511.164,110.824 523.26,94.864 550.14,94.864 C577.02,94.864 588.948,110.824 588.948,126.616 Z M568.956,182.728 L568.956,126.616 C568.956,116.032 555.852,114.856 550.14,114.856 C544.428,114.856 531.156,116.032 531.156,126.616 L531.156,182.728 C531.156,191.464 533.508,199.36 550.14,199.36 C566.604,199.36 568.956,191.464 568.956,182.728 Z M620.196,117.376 L601.884,117.376 C600.372,117.376 599.028,116.032 599.028,114.52 L599.028,100.24 C599.028,98.56 600.372,97.384 601.884,97.384 L663.876,97.384 C665.388,97.384 666.732,98.56 666.732,100.24 L666.732,114.52 C666.732,116.032 665.388,117.376 663.876,117.376 L645.9,117.376 C644.388,117.376 643.044,118.552 643.044,120.232 L643.044,214.144 C643.044,215.656 641.868,217 640.188,217 L625.908,217 C624.396,217 623.052,215.656 623.052,214.144 L623.052,120.232 C623.052,118.552 621.876,117.376 620.196,117.376 Z" id="Robot" fill="#4A4A4A"></path></g></svg>